<?xml version="1.0" standalone="no"?><!DOCTYPE svg PUBLIC "-//W3C//DTD SVG 1.1//EN" "http://www.w3.org/Graphics/SVG/1.1/DTD/svg11.dtd"><svg t="1684838056088" class="icon" viewBox="0 0 1024 1024" version="1.1" xmlns="http://www.w3.org/2000/svg" p-id="2362" xmlns:xlink="http://www.w3.org/1999/xlink" width="200" height="200"><path d="M832.853333 191.146667a66.986667 66.986667 0 0 0-95.146666 0L673.706667 256 622.933333 203.946667a42.666667 42.666667 0 0 0-60.16 0 42.666667 42.666667 0 0 0 0 60.16l26.453334 26.453333-322.133334 322.133333L256 686.506667l-67.413333 65.28a59.306667 59.306667 0 1 0 85.333333 85.333333l65.28-65.28 73.386667-13.226667 321.706666-322.133333 26.88 26.453333a42.666667 42.666667 0 0 0 29.866667 12.373334 42.666667 42.666667 0 0 0 30.293333-12.373334 42.666667 42.666667 0 0 0 0-60.16L768 349.866667l63.573333-63.573334a66.986667 66.986667 0 0 0 1.28-95.146666z m-305.493333 389.12H360.106667l259.413333-259.413334 85.333333 85.333334z" p-id="2363"></path></svg>