<?xml version="1.0" standalone="no"?><!DOCTYPE svg PUBLIC "-//W3C//DTD SVG 1.1//EN" "http://www.w3.org/Graphics/SVG/1.1/DTD/svg11.dtd"><svg t="1685456367267" class="icon" viewBox="0 0 1024 1024" version="1.1" xmlns="http://www.w3.org/2000/svg" p-id="9723" xmlns:xlink="http://www.w3.org/1999/xlink" width="200" height="200"><path d="M674.082 192.05H92.062c-17.673 0-32 14.327-32 32s14.327 32 32 32h582.021c17.673 0 32-14.327 32-32s-14.328-32-32.001-32zM923.938 481.242H92.062c-17.673 0-32 14.327-32 32s14.327 32 32 32h831.877c17.673 0 32-14.327 32-32s-14.328-32-32.001-32zM673.938 767.726H92.062c-17.673 0-32 14.327-32 32s14.327 32 32 32h581.877c17.673 0 32-14.327 32-32s-14.328-32-32.001-32z" fill="" p-id="9724"></path></svg>