<?xml version="1.0" standalone="no"?><!DOCTYPE svg PUBLIC "-//W3C//DTD SVG 1.1//EN" "http://www.w3.org/Graphics/SVG/1.1/DTD/svg11.dtd"><svg t="1685456249912" class="icon" viewBox="0 0 1024 1024" version="1.1" xmlns="http://www.w3.org/2000/svg" p-id="8758" xmlns:xlink="http://www.w3.org/1999/xlink" width="200" height="200"><path d="M220.99 192.162h582.02c17.673 0 32 14.327 32 32s-14.327 32-32 32H220.99c-17.673 0-32-14.327-32-32s14.327-32 32-32zM96.062 481.354h831.877c17.673 0 32 14.327 32 32 0 17.673-14.327 32-32 32H96.062c-17.673 0-32-14.327-32-32 0-17.673 14.327-32 32-32zM221.062 767.838h581.877c17.673 0 32 14.327 32 32s-14.327 32-32 32H221.062c-17.673 0-32-14.327-32-32s14.327-32 32-32z" fill="" p-id="8759"></path></svg>