<?xml version="1.0" standalone="no"?><!DOCTYPE svg PUBLIC "-//W3C//DTD SVG 1.1//EN" "http://www.w3.org/Graphics/SVG/1.1/DTD/svg11.dtd"><svg t="1685456414573" class="icon" viewBox="0 0 1024 1024" version="1.1" xmlns="http://www.w3.org/2000/svg" p-id="10688" xmlns:xlink="http://www.w3.org/1999/xlink" width="200" height="200"><path d="M341.918 192.05h582.021c17.673 0 32 14.327 32 32s-14.327 32-32 32H341.918c-17.673 0-32-14.327-32-32s14.327-32 32-32zM92.062 481.242h831.877c17.673 0 32 14.327 32 32s-14.327 32-32 32H92.062c-17.673 0-32-14.327-32-32s14.327-32 32-32zM342.062 767.726h581.877c17.673 0 32 14.327 32 32s-14.327 32-32 32H342.062c-17.673 0-32-14.327-32-32s14.327-32 32-32z" fill="" p-id="10689"></path></svg>