<?xml version="1.0" standalone="no"?><!DOCTYPE svg PUBLIC "-//W3C//DTD SVG 1.1//EN" "http://www.w3.org/Graphics/SVG/1.1/DTD/svg11.dtd"><svg t="1685779783103" class="icon" viewBox="0 0 1024 1024" version="1.1" xmlns="http://www.w3.org/2000/svg" p-id="44396" xmlns:xlink="http://www.w3.org/1999/xlink" width="200" height="200"><path d="M627.14 203.93l326.75 294.26c7.63 6.94 8.19 18.74 1.26 26.38-0.4 0.44-0.82 0.86-1.26 1.26L627.13 820.08c-7.75 6.81-19.54 6.04-26.35-1.7a18.662 18.662 0 0 1-4.64-12.12V568.01c0-10.31-8.36-18.67-18.67-18.67H101.34C80.72 549.34 64 532.62 64 512s16.72-37.34 37.34-37.34h476.13c10.31 0 18.67-8.36 18.67-18.67V217.74c0.11-10.31 8.56-18.58 18.88-18.46 4.46 0.04 8.76 1.69 12.12 4.65z" fill="#333333" p-id="44397"></path></svg>