<?xml version="1.0" standalone="no"?><!DOCTYPE svg PUBLIC "-//W3C//DTD SVG 1.1//EN" "http://www.w3.org/Graphics/SVG/1.1/DTD/svg11.dtd"><svg t="1685779118328" class="icon" viewBox="0 0 1024 1024" version="1.1" xmlns="http://www.w3.org/2000/svg" p-id="22161" xmlns:xlink="http://www.w3.org/1999/xlink" width="200" height="200"><path d="M396.87 820.07L70.11 525.81c-7.63-6.94-8.19-18.74-1.26-26.38 0.4-0.44 0.82-0.86 1.26-1.26l326.75-294.26c7.75-6.81 19.54-6.04 26.35 1.7 2.95 3.36 4.59 7.65 4.64 12.12v238.25c0 10.31 8.36 18.67 18.67 18.67h476.13c20.62 0 37.34 16.72 37.34 37.34 0 20.62-16.72 37.34-37.34 37.34H446.53c-10.31 0-18.67 8.36-18.67 18.67v238.24c-0.11 10.31-8.56 18.58-18.88 18.46-4.46-0.02-8.76-1.67-12.11-4.63z" p-id="22162"></path></svg>