<?xml version="1.0" standalone="no"?><!DOCTYPE svg PUBLIC "-//W3C//DTD SVG 1.1//EN" "http://www.w3.org/Graphics/SVG/1.1/DTD/svg11.dtd"><svg t="1684205140800" class="icon" viewBox="0 0 1024 1024" version="1.1" xmlns="http://www.w3.org/2000/svg" p-id="4102" xmlns:xlink="http://www.w3.org/1999/xlink" width="200" height="200"><path d="M725.12 508.64c-17.28-11.52-36.48-21.6-57.6-29.28 65.28-34.08 102.24-93.6 102.24-170.88 0-72-28.32-128.64-82.08-164.64-43.2-28.8-103.2-44.16-173.28-44.16-115.68 0-223.68 0.48-224.64 0.48h-29.76v823.2l29.76 0.48c0.96 0 105.6 0.96 224.64 0.96 194.4 0 310.56-85.44 310.56-228.96-0.48-78.72-34.56-143.52-99.84-187.2z m-210.72-348.96c89.28 0 195.36 25.92 195.36 148.8 0 130.08-137.76 144-197.28 144H319.52V160.16c40.32 0 115.68-0.48 194.88-0.48z m-0.48 705.12c-80.64 0-155.04-0.48-194.4-0.48v-351.36h192.96c121.92 0 252 48 252 183.36 0 146.4-156.96 168.48-250.56 168.48z" p-id="4103"></path></svg>