<?xml version="1.0" standalone="no"?><!DOCTYPE svg PUBLIC "-//W3C//DTD SVG 1.1//EN" "http://www.w3.org/Graphics/SVG/1.1/DTD/svg11.dtd"><svg t="1684926290070" class="icon" viewBox="0 0 1024 1024" version="1.1" xmlns="http://www.w3.org/2000/svg" p-id="5116" xmlns:xlink="http://www.w3.org/1999/xlink" width="200" height="200"><path d="M1021.7472 210.3296c0 1.536-0.8192 3.072-2.2528 4.608l0 2.2528L836.608 399.9744c-6.144 3.072-10.6496 4.608-13.7216 4.608-3.072 0-7.5776-1.4336-13.7216-4.608-9.1136-9.1136-9.1136-18.3296 0-27.4432l153.1904-150.8352L18.3296 221.696C6.144 221.696 0 215.6544 0 203.4688c0-12.1856 6.144-18.3296 18.3296-18.3296l944.0256 0L809.1648 34.304c-9.1136-9.1136-9.1136-18.3296 0-27.4432 9.1136-9.1136 18.3296-9.1136 27.4432 0l182.8864 182.8864C1020.928 192.8192 1021.7472 195.072 1021.7472 196.608 1023.2832 201.1136 1023.2832 205.7216 1021.7472 210.3296zM1005.6704 660.5824C1017.856 660.5824 1024 666.624 1024 678.8096c0 12.288-6.144 18.3296-18.3296 18.3296L61.7472 697.1392l153.1904 150.8352c9.1136 9.1136 9.1136 18.3296 0 27.4432-6.144 3.072-10.6496 4.608-13.7216 4.608-3.072 0-7.5776-1.4336-13.7216-4.608L4.608 692.5312C3.072 689.5616 2.2528 687.2064 2.2528 685.6704c-1.536-4.608-1.536-9.1136 0-13.7216 0-1.4336 0.7168-3.072 2.2528-4.608L4.5056 665.1904 187.392 482.304c9.1136-9.1136 18.3296-9.1136 27.4432 0 9.1136 9.1136 9.1136 18.3296 0 27.4432L61.7472 660.5824 1005.6704 660.5824z" p-id="5117"></path></svg>