<?xml version="1.0" standalone="no"?><!DOCTYPE svg PUBLIC "-//W3C//DTD SVG 1.1//EN" "http://www.w3.org/Graphics/SVG/1.1/DTD/svg11.dtd"><svg t="1683598347848" class="icon" viewBox="0 0 1024 1024" version="1.1" xmlns="http://www.w3.org/2000/svg" p-id="1759" xmlns:xlink="http://www.w3.org/1999/xlink" width="200" height="200"><path d="M0 0h1024v1024H0z" fill="#FFFFFF" fill-opacity="0" p-id="1760"></path><path d="M880 112c17.673 0 32 14.327 32 32v736c0 17.673-14.327 32-32 32H144c-17.673 0-32-14.327-32-32V144c0-17.673 14.327-32 32-32h736z m-32 64H176v672h672V176z m-272.648 69.76c25.519 0 46.82 11.551 61.484 33.466a117.725 117.725 0 0 1 18.432 53.947c0.46 5.774 1.425 17.189 2.899 34.243l0.067 0.78h-65.72c-1.306-12.606-2.234-22.546-2.785-29.82-0.655-6.678-4.67-25.889-14.418-25.889-4.015 0-11.265 6.104-19.335 23.267-7.286 15.377-12.554 33.603-15.767 44.764l-0.167 0.58-1.843 6.268c-0.77 2.717-2.705 10.01-7.512 29.03l-0.092 0.364h84.125c0 35.346-28.654 64-64 64h-35.754l-0.73 2.99c-17.051 70.192-34.102 141.277-50.82 211.488l-3.577 15.032-0.082 0.368-0.082 0.205c-7.219 24.778-31.86 66.577-78.656 67.41l-1.425 0.014h-0.041c-54.439 0-83.153-49.77-91.55-79.221-1.876-6.584-4.085-20.255-6.627-41.014l-0.095-0.781h65.67c1.21 9.927 2.602 17.633 4.174 23.116 0.082 0.287 10.24 31.213 28.469 31.213 7.93 0 14.42-12.306 16.868-19.161l0.09-0.255 2.58-10.732c5.468-22.957 19.323-81.137 33.722-141.037l0.9-3.746 0.902-3.748 1.142-4.746 1.142-4.743c2.965-12.313 5.922-24.566 8.802-36.467l0.784-3.236 0.72-2.949H363.72c0-35.346 28.654-64 64-64h35.164c6.416-25.866 10.558-42.15 12.384-48.379l0.054-0.185 1.72-5.858c5.285-18.31 13.272-46.041 27.61-70.045 18.473-30.885 42.23-46.533 70.7-46.533zM754.17 516.456l0.872 0.6L699.064 597l55.978 79.945-0.872 0.6c-28.59 19.335-67.406 12.488-87.655-15.464l-0.608-0.853-5.907-8.438-5.907 8.438c-20.071 28.664-59.385 35.848-88.263 16.317l-0.872-0.6L620.935 597l-55.977-79.944 0.872-0.6c28.59-19.335 67.406-12.488 87.655 15.464l0.608 0.853L660 541.21l5.907-8.437c20.071-28.664 59.385-35.848 88.263-16.317z" p-id="1761"></path></svg>