<?xml version="1.0" standalone="no"?><!DOCTYPE svg PUBLIC "-//W3C//DTD SVG 1.1//EN" "http://www.w3.org/Graphics/SVG/1.1/DTD/svg11.dtd"><svg t="1684233497068" class="icon" viewBox="0 0 1024 1024" version="1.1" xmlns="http://www.w3.org/2000/svg" p-id="2086" xmlns:xlink="http://www.w3.org/1999/xlink" width="200" height="200"><path d="M812.311273 139.636364c14.056727 0 25.506909 11.543273 25.506909 25.786181a25.646545 25.646545 0 0 1-25.506909 25.786182l-153.925818-0.046545-238.266182 641.629091h177.664c12.706909 0 23.226182 9.355636 25.227636 21.597091l0.325818 4.189091a25.646545 25.646545 0 0 1-25.553454 25.786181H211.688727A25.646545 25.646545 0 0 1 186.181818 858.577455c0-14.242909 11.450182-25.786182 25.506909-25.786182h153.879273l238.266182-641.629091H426.216727a25.6 25.6 0 0 1-25.227636-21.550546l-0.325818-4.189091c0-14.242909 11.450182-25.786182 25.553454-25.786181z" p-id="2087"></path></svg>