<?xml version="1.0" standalone="no"?><!DOCTYPE svg PUBLIC "-//W3C//DTD SVG 1.1//EN" "http://www.w3.org/Graphics/SVG/1.1/DTD/svg11.dtd"><svg t="1685774362335" class="icon" viewBox="0 0 1856 1024" version="1.1" xmlns="http://www.w3.org/2000/svg" p-id="4699" xmlns:xlink="http://www.w3.org/1999/xlink" width="362.5" height="200"><path d="M1792 704v-64h64v64h-64zM0 0h1856v64H0V0z m64 704H0v-64h64v64z m64 0v-64h64v64H128zM64 320h192v64H64V320z m192 704H64v-64h192v64z m0-384h64v64H256v-64z m192 64H384v-64h64v64zM320 320h192v64H320V320z m128 704H384v-64h64v64z m128-320H512v-64h64v64z m64 0v-64h64v64h-64zM576 320h192v64H576V320z m192 704H576v-64h192v64z m0-384h64v64h-64v-64z m192 64h-64v-64h64v64z m-128-384h192v64h-192V320z m128 704h-64v-64h64v64z m128-320h-64v-64h64v64z m64 0v-64h64v64h-64z m-64-384h192v64h-192V320z m192 704h-192v-64h192v64z m0-384h64v64h-64v-64z m192 64h-64v-64h64v64z m-128-384h192v64h-192V320z m128 704h-64v-64h64v64z m128-320h-64v-64h64v64z m64 0v-64h64v64h-64z m-64-384h192v64h-192V320z m192 704h-192v-64h192v64z" p-id="4700"></path></svg>