<?xml version="1.0" standalone="no"?><!DOCTYPE svg PUBLIC "-//W3C//DTD SVG 1.1//EN" "http://www.w3.org/Graphics/SVG/1.1/DTD/svg11.dtd"><svg t="1685453216239" class="icon" viewBox="0 0 1024 1024" version="1.1" xmlns="http://www.w3.org/2000/svg" p-id="1798" xmlns:xlink="http://www.w3.org/1999/xlink" width="200" height="200"><path d="M427.946667 274.346667L284.586667 130.986667a4.266667 4.266667 0 0 0-6.016 0L135.253333 274.346667a4.266667 4.266667 0 0 0 2.986667 7.296H238.933333a4.266667 4.266667 0 0 1 4.266667 4.266666v452.266667a4.266667 4.266667 0 0 1-4.266667 4.266667H138.24a4.224 4.224 0 0 0-2.986667 7.253333l143.36 143.36a4.266667 4.266667 0 0 0 6.016 0l143.36-143.36a4.266667 4.266667 0 0 0-2.986666-7.253333H324.266667a4.266667 4.266667 0 0 1-4.266667-4.266667V285.866667a4.266667 4.266667 0 0 1 4.266667-4.266667h100.693333a4.266667 4.266667 0 0 0 2.986667-7.296zM554.666667 302.933333v76.8a4.266667 4.266667 0 0 0 4.266666 4.266667h332.8a4.266667 4.266667 0 0 0 4.266667-4.266667V302.933333a4.266667 4.266667 0 0 0-4.266667-4.266666h-332.8a4.266667 4.266667 0 0 0-4.266666 4.266666z m4.266666 251.733334h332.8a4.266667 4.266667 0 0 0 4.266667-4.266667v-76.8a4.266667 4.266667 0 0 0-4.266667-4.266667h-332.8a4.266667 4.266667 0 0 0-4.266666 4.266667v76.8a4.266667 4.266667 0 0 0 4.266666 4.266667z m0 170.666666h332.8a4.266667 4.266667 0 0 0 4.266667-4.266666v-76.8a4.266667 4.266667 0 0 0-4.266667-4.266667h-332.8a4.266667 4.266667 0 0 0-4.266666 4.266667v76.8a4.266667 4.266667 0 0 0 4.266666 4.266666z" p-id="1799"></path></svg>