<?xml version="1.0" standalone="no"?><!DOCTYPE svg PUBLIC "-//W3C//DTD SVG 1.1//EN" "http://www.w3.org/Graphics/SVG/1.1/DTD/svg11.dtd"><svg t="1685456009548" class="icon" viewBox="0 0 1024 1024" version="1.1" xmlns="http://www.w3.org/2000/svg" p-id="3397" xmlns:xlink="http://www.w3.org/1999/xlink" width="200" height="200"><path d="M201.376 105.376a32 32 0 0 1 45.248 0l96 96a32 32 0 0 1-45.248 45.248L256 205.248v613.504l41.376-41.376a32 32 0 0 1 45.248 45.248l-96 96a32 32 0 0 1-45.248 0l-96-96a32 32 0 1 1 45.248-45.248L192 818.752V205.248L150.624 246.624a32 32 0 0 1-45.248-45.248l96-96zM896 160H480a32 32 0 1 0 0 64h416a32 32 0 1 0 0-64z m-192 224h-224a32 32 0 1 0 0 64h224a32 32 0 1 0 0-64z m-224 224h416a32 32 0 1 1 0 64H480a32 32 0 1 1 0-64z m224 224h-224a32 32 0 1 0 0 64h224a32 32 0 1 0 0-64z" p-id="3398"></path></svg>