<?xml version="1.0" standalone="no"?><!DOCTYPE svg PUBLIC "-//W3C//DTD SVG 1.1//EN" "http://www.w3.org/Graphics/SVG/1.1/DTD/svg11.dtd"><svg t="1685776746143" class="icon" viewBox="0 0 1024 1024" version="1.1" xmlns="http://www.w3.org/2000/svg" p-id="34458" xmlns:xlink="http://www.w3.org/1999/xlink" width="200" height="200"><path d="M170.666667 768l682.666666 0 0 42.666667-682.666666 0 0-42.666667Z" p-id="34459"></path><path d="M306.158933 556.706133l173.0048 74.146134a21.333333 21.333333 0 1 0 16.810667-39.214934l-173.013333-74.1504a21.333333 21.333333 0 1 0-16.802134 39.2192z m303.0272 39.9744l140.680534-211.0208a21.333333 21.333333 0 1 0-35.498667-23.6672L573.6832 573.013333a21.333333 21.333333 0 1 0 35.498667 23.6672z" p-id="34460"></path><path d="M256 597.333333c-47.1296 0-85.333333-38.203733-85.333333-85.333333s38.203733-85.333333 85.333333-85.333333 85.333333 38.203733 85.333333 85.333333-38.203733 85.333333-85.333333 85.333333z m0-42.666666c23.5648 0 42.666667-19.101867 42.666667-42.666667s-19.101867-42.666667-42.666667-42.666667-42.666667 19.101867-42.666667 42.666667 19.101867 42.666667 42.666667 42.666667zM554.666667 725.333333c-47.1296 0-85.333333-38.203733-85.333334-85.333333s38.203733-85.333333 85.333334-85.333333 85.333333 38.203733 85.333333 85.333333-38.203733 85.333333-85.333333 85.333333z m0-42.666666c23.5648 0 42.666667-19.101867 42.666666-42.666667s-19.101867-42.666667-42.666666-42.666667-42.666667 19.101867-42.666667 42.666667 19.101867 42.666667 42.666667 42.666667zM768 405.333333c-47.1296 0-85.333333-38.203733-85.333333-85.333333s38.203733-85.333333 85.333333-85.333333 85.333333 38.203733 85.333333 85.333333-38.203733 85.333333-85.333333 85.333333z m0-42.666666c23.5648 0 42.666667-19.101867 42.666667-42.666667s-19.101867-42.666667-42.666667-42.666667-42.666667 19.101867-42.666667 42.666667 19.101867 42.666667 42.666667 42.666667z" p-id="34461"></path></svg>