<?xml version="1.0" standalone="no"?><!DOCTYPE svg PUBLIC "-//W3C//DTD SVG 1.1//EN" "http://www.w3.org/Graphics/SVG/1.1/DTD/svg11.dtd"><svg t="1684234670960" class="icon" viewBox="0 0 1024 1024" version="1.1" xmlns="http://www.w3.org/2000/svg" p-id="2389" xmlns:xlink="http://www.w3.org/1999/xlink" width="200" height="200"><path d="M512 837.12c-177.664 0-322.048-144.384-322.048-322.048V130.56c0-17.92 14.336-32.256 32.256-32.256s32.256 14.336 32.256 32.256v384.512c0 142.336 115.712 258.048 258.048 258.048 142.336 0 258.048-115.712 258.048-258.048V130.56c0-17.92 14.336-32.256 31.744-32.256s31.744 14.336 31.744 32.256v384.512c0 177.152-144.384 322.048-322.048 322.048zM865.792 959.488H158.208c-17.92 0-32.256-14.336-32.256-31.744s14.336-31.744 32.256-31.744h707.584c17.92 0 31.744 14.336 31.744 31.744s-14.336 31.744-31.744 31.744z" p-id="2390"></path></svg>